<?xml version="1.0" encoding="utf-8"?>
<!-- Generator: Adobe Illustrator 26.3.0, SVG Export Plug-In . SVG Version: 6.00 Build 0)  -->
<svg version="1.1" id="Layer_1" xmlns="http://www.w3.org/2000/svg" xmlns:xlink="http://www.w3.org/1999/xlink" x="0px" y="0px"
	 viewBox="0 0 1656 733.5" style="enable-background:new 0 0 1656 733.5;" xml:space="preserve">
<style type="text/css">
	.st0{fill:none;stroke:#000000;stroke-width:17;stroke-linecap:round;stroke-miterlimit:10;}
	.st1{fill:none;stroke:#000000;stroke-width:18;stroke-linecap:round;stroke-miterlimit:10;}
	.st2{font-family:'TwCenMT-Regular';}
	.st3{font-size:395.8485px;}
	.st4{font-family:'ArialMT';}
	.st5{font-size:95.336px;}
</style>
<g>
	<path d="M299.8,189.5c32.9,0,64.5,16.1,88.9,45.3c24.4,29.1,38.4,68.1,38.4,107c0,37.8-13.3,72.2-37.4,97
		c-23.5,24.1-55.4,37.3-89.8,37.3s-66.3-13.2-89.8-37.3c-24.1-24.7-37.4-59.2-37.4-97c0-38.8,14-77.8,38.4-107
		C235.3,205.6,266.8,189.5,299.8,189.5 M299.8,171.5c-80.2,0-145.2,81.2-145.2,170.2S219.5,494,299.8,494S445,430.8,445,341.7
		S380,171.5,299.8,171.5L299.8,171.5z"/>
</g>
<path class="st0" d="M266,228.5l-16.3,13c-5.9,4.7-11.3,10-16.1,15.8c-4.7,5.8-8.9,11.9-12.1,18.7c-2.4,5.2-4.9,11.6-7.1,18.4
	c-0.1,0.3-0.2,0.6-0.2,0.9l-2.7,11.7"/>
<line class="st1" x1="299.5" y1="82.5" x2="299.5" y2="127.5"/>
<line class="st1" x1="156.1" y1="123.4" x2="186.6" y2="163.8"/>
<line class="st1" x1="89.4" y1="215.9" x2="135.3" y2="237.3"/>
<line class="st1" x1="442.1" y1="123.4" x2="411.5" y2="163.7"/>
<line class="st1" x1="499.7" y1="216.9" x2="453.8" y2="238.2"/>
<path d="M383,545.5c0,2.8-0.5,5.4-1.3,8c-2.3,6.9-7.7,13-14.9,17.4c-0.7,0.4-1.5,0.6-2.3,0.6h-109c-1,0-2,0.3-2.7,0.9
	c-3,2.4-4.7,5.2-4.7,8.1c0,2.4,1.2,4.7,3.3,6.8c0.8,0.8,1.9,1.2,3,1.2h81.4c0.7,0,1.5,0.2,2.1,0.5c7.8,4.3,13.7,10.4,16.4,17.5
	c1.1,2.9,1.7,5.9,1.7,9c0,2.8-0.5,5.4-1.3,8c-2.3,6.9-7.7,13-14.9,17.4c-0.7,0.4-1.5,0.6-2.3,0.6h-53c-0.8,0-1.6-0.2-2.3-0.6l0,0
	c-0.2,0.2-0.4,0.4-0.6,0.7h-13.1c-1.5,0-2.9-0.7-3.7-2c-1.1-1.7-1.8-3.8-1.8-6c0-1.5,0.3-3,0.9-4.3c0.8-1.9,2.2-3.5,3.8-4.7
	c0.2-0.1,0.4-0.3,0.6-0.4c0.7-0.4,1.4-0.6,2.2-0.6h61.1c1.1,0,2.2-0.4,3-1.2c2.2-2.1,3.3-4.4,3.3-6.8c0-2.9-1.7-5.6-4.7-8.1
	c-0.8-0.6-1.8-0.9-2.7-0.9h-82c-0.8,0-1.6-0.2-2.3-0.6c-7.2-4.4-12.5-10.5-14.9-17.4c-0.9-2.6-1.3-5.2-1.3-8c0-3.1,0.6-6.1,1.7-9
	c2.7-7.1,8.6-13.2,16.4-17.5c0.6-0.4,1.4-0.5,2.1-0.5h108.4c1.1,0,2.2-0.4,3-1.2c2.2-2.1,3.3-4.4,3.3-6.8c0-2.9-1.7-5.6-4.7-8.1
	c-0.8-0.6-1.8-0.9-2.7-0.9H256.3c-0.4,0-0.8,0-1.2-0.1c-12-3.1-22.1-9.5-29-17.9c-5-6.1-8.2-13.2-9.1-20.9c-0.2-1.3-0.2-2.7-0.2-4.1
	c0-2.5,0.3-5,0.8-7.5c0.2-1.2,0.9-2.2,1.9-2.9c1.6-1,3.5-1.7,5.5-1.7c3.5,0,6.5,1.8,8.3,4.5c0.5,0.8,0.8,1.8,0.7,2.7
	c0,0.6-0.1,1.2-0.1,1.8c0,1.5,0.1,3,0.4,4.4c1.8,10.2,9.6,18.8,20.5,23.2c0.5,0.2,1.1,0.3,1.7,0.3h106.2c0.7,0,1.5,0.2,2.1,0.5
	c7.8,4.3,13.7,10.4,16.4,17.5C382.4,539.4,383,542.4,383,545.5z"/>
<g>
	<text transform="matrix(1.0899 0 0 1 582.8594 552.5205)" class="st2 st3">Fannu</text>
	<text transform="matrix(1.0399 0 0 1 1184.2148 359.2451)" class="st4 st5">Creation</text>
</g>
</svg>
