<svg xmlns="http://www.w3.org/2000/svg" xmlns:xlink="http://www.w3.org/1999/xlink" width="800px" height="800px" viewBox="0 0 1200 1200">
    <g id="c1c61027-9d28-4434-a51c-a9a11a6a258a">
<rect style="stroke: rgb(193,193,193); stroke-width: 0; stroke-dasharray: none; stroke-linecap: butt; stroke-dashoffset: 0; stroke-linejoin: miter; stroke-miterlimit: 4; fill: rgb(255,255,255); fill-opacity: 0; fill-rule: nonzero; opacity: 1;" x="-600" y="-600" rx="0" ry="0" width="1200" height="1200" transform="matrix(1 0 0 1 600 600)"></rect>
</g>

        <g id="d3246db4-3b55-402a-b55b-23de28693572" name="Logo 1">
          <g style="" id="50ec86c7-fbc0-40cf-a675-5806cecc7b2e">
<g style=""><path d="M-92.91774 -8.09595L-92.91774 -5.68394L-100.02100 -5.68394L-100.02100 -1.65654L-93.22754 -1.65654L-93.22754 0.66695L-100.02100 0.66695L-100.02100 6.95146L-102.63217 6.95146L-102.63217 -8.09595Z" fill="rgb(255, 255, 255)" transform="matrix(2.568907 0 0 2.568907 601.762052 1000.384054) translate(0 0)"></path><path d="M-84.92934 -8.09595L-84.92934 6.95146L-87.54051 6.95146L-87.54051 -8.09595Z" fill="rgb(255, 255, 255)" transform="matrix(2.568907 0 0 2.568907 601.762052 1000.384054) translate(0 0)"></path><path d="M-79.88403 -5.68394L-79.88403 -8.09595L-68.08952 -8.09595L-68.08952 -5.68394L-72.69226 -5.68394L-72.69226 6.95146L-75.30342 6.95146L-75.30342 -5.68394Z" fill="rgb(255, 255, 255)" transform="matrix(2.568907 0 0 2.568907 601.762052 1000.384054) translate(0 0)"></path><path d="M-58.41935 -8.09595L-53.50681 3.01258L-52.46677 5.51310L-52.40038 5.49098L-52.44464 2.79129L-52.44464 -8.09595L-49.92199 -8.09595L-49.92199 6.95146L-54.56898 6.95146L-59.48152 -4.20132L-60.52156 -6.70185L-60.58794 -6.67972L-60.54369 -3.98004L-60.54369 6.95146L-63.04421 6.95146L-63.04421 -8.09595Z" fill="rgb(255, 255, 255)" transform="matrix(2.568907 0 0 2.568907 601.762052 1000.384054) translate(0 0)"></path><path d="M-33.83454 -8.09595L-33.83454 -5.70607L-41.46889 -5.70607L-41.46889 -1.89996L-34.40988 -1.89996L-34.40988 0.42354L-41.46889 0.42354L-41.46889 4.56158L-33.83454 4.56158L-33.83454 6.95146L-44.08005 6.95146L-44.08005 -8.09595Z" fill="rgb(255, 255, 255)" transform="matrix(2.568907 0 0 2.568907 601.762052 1000.384054) translate(0 0)"></path><path d="M-24.38565 0.37928Q-28.54582 -0.46160 -28.54582 -3.82514Q-28.54582 -5.90522 -27.01895 -7.11123Q-25.49208 -8.31723 -22.96943 -8.31723Q-20.11484 -8.31723 -18.67649 -6.85675Q-17.23813 -5.39627 -17.08323 -3.18341L-19.73866 -3.18341Q-19.78292 -4.44474 -20.59061 -5.25243Q-21.39830 -6.06012 -23.05794 -6.06012Q-24.38565 -6.06012 -25.13802 -5.51797Q-25.89039 -4.97582 -25.89039 -4.02430Q-25.89039 -3.24980 -25.32612 -2.79616Q-2... <truncated>

<g style="" id="9d3c39be-7889-4b4b-87b4-d1ab8734ec54">
<g style=""><path d="M-189.83000 -41.48052L-152.19200 -41.48052L-152.19200 -26.72052L-174.08600 -26.72052L-174.08600 -10.40252L-160.47400 -17.20852L-160.47400 -1.21852L-174.08600 5.58748L-174.08600 25.75948L-189.83000 25.75948Z" fill="rgb(255, 255, 255)" transform="matrix(2.568907 0 0 2.568907 600.000054 850.619308) translate(0 0)"></path><path d="M-126.93600 11.49148L-137.92400 16.82148L-138.99000 25.75948L-155.22600 25.75948L-144.73000 -41.48052L-119.47400 -41.48052L-108.97800 25.75948L-125.21400 25.75948ZM-128.74000 -3.10452L-131.69200 -26.88452L-132.67600 -26.88452L-135.95600 0.50348Z" fill="rgb(255, 255, 255)" transform="matrix(2.568907 0 0 2.568907 600.000054 850.619308) translate(0 0)"></path><path d="M-78.88400 11.49148L-89.87200 16.82148L-90.93800 25.75948L-107.17400 25.75948L-96.67800 -41.48052L-71.42200 -41.48052L-60.92600 25.75948L-77.16200 25.75948ZM-80.68800 -3.10452L-83.64000 -26.88452L-84.62400 -26.88452L-87.90400 0.50348Z" fill="rgb(255, 255, 255)" transform="matrix(2.568907 0 0 2.568907 600.000054 850.619308) translate(0 0)"></path><path d="M-51.08600 -26.14652L-63.96000 -26.14652L-63.96000 -41.48052L-22.46800 -41.48052L-22.46800 -26.14652L-35.34200 -26.14652L-35.34200 25.75948L-51.08600 25.75948Z" fill="rgb(255, 255, 255)" transform="matrix(2.568907 0 0 2.568907 600.000054 850.619308) translate(0 0)"></path><path d="M9.67600 -1.79252L-1.88600 3.86548L-1.88600 25.75948L-17.63000 25.75948L-17.63000 -41.48052L-1.88600 -41.48052L-1.88600 -12.78052L9.67600 -18.43852L9.67600 -41.48052L25.42000 -41.48052L25.42000 25.75948L9.67600 25.75948Z" fill="rgb(255, 255, 255)" transform="matrix(2.568907 0 0 2.568907 600.000054 850.619308) translate(0 0)"></path><path d="M32.39000 18.78948L32.39000 -41.48052L48.13400 -41.48052L48.13400 10.99948L58.71200 10.99948L58.71200 -41.48052L74.45600 -41.48052L74.45600 18.78948L67.48600 25.75948L39.36000 25.75948Z" fill="rgb(255, 255, 255)" transform="matrix(2.568907 0 0 2.568907 600.000054 850.619308) translate(0 0)"></path><... <truncated>


        <g id="351f6b22-f42c-4880-9e44-a426d8852af2" name="Logomark">
          <g id="2790f68f-5900-4839-a207-1e053eac5bc7">
<g style="">
		<g id="2790f68f-5900-4839-a207-1e053eac5bc7-child-0">
<path style="stroke: rgb(193,193,193); stroke-width: 0; stroke-dasharray: none; stroke-linecap: butt; stroke-dashoffset: 0; stroke-linejoin: miter; stroke-miterlimit: 4; fill: rgb(10,255,10); fill-rule: nonzero; opacity: 1;" transform="matrix(0.506201 0 0 0.506201 602.421956 506.748318) matrix(1 0 0 1 0 0)  translate(-927.009891, -403.178417)" d="M 993.51 572.63 C 483.06 773.98 39.64 862.14 3.11 769.54 C -16.98 718.61 60.13 643.02 234.92 541.20 C 234.92 541.20 150.86 616.27 167.68 658.92 C 197.09 733.47 554.07 662.50 965.01 500.40 C 1375.95 338.30 1685.25 146.45 1655.84 71.90 C 1639.02 29.26 1488.12 40.82 1488.12 40.82 C 1709.68 -13.28 1830.27 -13.75 1851.62 40.38 C 1888.15 132.99 1503.96 371.29 993.51 572.64 Z" stroke-linecap="round"></path>
</g>
</g>
</g>

<g id="66f1af45-13cc-4b7f-b1fc-80c78327c82f">
<g style="">
		<g id="66f1af45-13cc-4b7f-b1fc-80c78327c82f-child-0">
<path style="stroke: rgb(193,193,193); stroke-width: 0; stroke-dasharray: none; stroke-linecap: butt; stroke-dashoffset: 0; stroke-linejoin: miter; stroke-miterlimit: 4; fill: rgb(10,255,10); fill-rule: nonzero; opacity: 1;" transform="matrix(6.358933 0 0 6.358933 602.423679 447.888493) matrix(1 0 0 1 0 0)  translate(-53.05, -41.35)" d="M 98.50 42.20 L 81.80 36.50 L 66.40 46.90 L 55.10 36.60 L 33.40 50.50 L 44.00 35.10 L 60.30 24.50 L 61.30 29.20 L 67.40 34.00 L 85.90 20.60 L 64.10 -0.00 L 34.10 15.40 L 4.80 39.50 L 2.60 53.00 L -0.00 60.90 L 12.20 70.50 L 24.80 77.90 L 48.40 82.70 L 65.00 78.90 L 78.00 81.20 L 95.50 78.30 L 106.10 60.40 z" stroke-linecap="round"></path>
</g>
</g>
</g>

<g id="07f28f98-3ec1-48b9-952d-77c931b829da">
<g style="">
		<g id="07f28f98-3ec1-48b9-952d-77c931b829da-child-0">
<path style="stroke: rgb(193,193,193); stroke-width: 0; stroke-dasharray: none; stroke-linecap: butt; stroke-dashoffset: 0; stroke-linejoin: miter; stroke-miterlimit: 4; fill: rgb(10,255,10); fill-rule: nonzero; opacity: 1;" transform="matrix(-0.235556 0 0 0.235556 852.158167 221.851194) matrix(1 0 0 1 0 0)  translate(-230.745, -230.745)" d="M 461.49 230.74 C 273.07 254.12 254.12 273.07 230.74 461.49 C 207.37 273.07 188.42 254.12 0.00 230.74 C 188.42 207.37 207.37 188.42 230.74 0.00 C 254.12 188.42 273.07 207.37 461.49 230.74 Z" stroke-linecap="round"></path>
</g>
</g>
</g>

        </g>
      
        </g>
      
  </svg>
