<svg xmlns="http://www.w3.org/2000/svg" xmlns:xlink="http://www.w3.org/1999/xlink" width="800px" height="517px" viewBox="0 0 1031.9519904698566 666.8959353160471">
    <g id="c1c61027-9d28-4434-a51c-a9a11a6a258a">
<rect style="stroke: rgb(193,193,193); stroke-width: 0; stroke-dasharray: none; stroke-linecap: butt; stroke-dashoffset: 0; stroke-linejoin: miter; stroke-miterlimit: 4; fill: rgb(255,255,255); fill-opacity: 0; fill-rule: nonzero; opacity: 1;" x="-515.9759952349283" y="-333.4479676580236" rx="0" ry="0" width="1031.9519904698566" height="666.8959353160471" transform="matrix(1 0 0 1 515.975995 333.447968)"></rect>
</g>

        <g id="351f6b22-f42c-4880-9e44-a426d8852af2" name="Logomark">
          <g id="2790f68f-5900-4839-a207-1e053eac5bc7">
<g style="">
		<g id="2790f68f-5900-4839-a207-1e053eac5bc7-child-0">
<path style="stroke: rgb(193,193,193); stroke-width: 0; stroke-dasharray: none; stroke-linecap: butt; stroke-dashoffset: 0; stroke-linejoin: miter; stroke-miterlimit: 4; fill: rgb(10,255,10); fill-rule: nonzero; opacity: 1;" transform="matrix(0.506201 0 0 0.506201 519.940276 393.136589) matrix(1 0 0 1 0 0)  translate(-927.009891, -403.178417)" d="M 993.51 572.63 C 483.06 773.98 39.64 862.14 3.11 769.54 C -16.98 718.61 60.13 643.02 234.92 541.20 C 234.92 541.20 150.86 616.27 167.68 658.92 C 197.09 733.47 554.07 662.50 965.01 500.40 C 1375.95 338.30 1685.25 146.45 1655.84 71.90 C 1639.02 29.26 1488.12 40.82 1488.12 40.82 C 1709.68 -13.28 1830.27 -13.75 1851.62 40.38 C 1888.15 132.99 1503.96 371.29 993.51 572.64 Z" stroke-linecap="round"></path>
</g>
</g>
</g>

<g id="66f1af45-13cc-4b7f-b1fc-80c78327c82f">
<g style="">
		<g id="66f1af45-13cc-4b7f-b1fc-80c78327c82f-child-0">
<path style="stroke: rgb(193,193,193); stroke-width: 0; stroke-dasharray: none; stroke-linecap: butt; stroke-dashoffset: 0; stroke-linejoin: miter; stroke-miterlimit: 4; fill: rgb(10,255,10); fill-rule: nonzero; opacity: 1;" transform="matrix(6.358933 0 0 6.358933 519.941998 334.276764) matrix(1 0 0 1 0 0)  translate(-53.05, -41.35)" d="M 98.50 42.20 L 81.80 36.50 L 66.40 46.90 L 55.10 36.60 L 33.40 50.50 L 44.00 35.10 L 60.30 24.50 L 61.30 29.20 L 67.40 34.00 L 85.90 20.60 L 64.10 -0.00 L 34.10 15.40 L 4.80 39.50 L 2.60 53.00 L -0.00 60.90 L 12.20 70.50 L 24.80 77.90 L 48.40 82.70 L 65.00 78.90 L 78.00 81.20 L 95.50 78.30 L 106.10 60.40 z" stroke-linecap="round"></path>
</g>
</g>
</g>

<g id="07f28f98-3ec1-48b9-952d-77c931b829da">
<g style="">
		<g id="07f28f98-3ec1-48b9-952d-77c931b829da-child-0">
<path style="stroke: rgb(193,193,193); stroke-width: 0; stroke-dasharray: none; stroke-linecap: butt; stroke-dashoffset: 0; stroke-linejoin: miter; stroke-miterlimit: 4; fill: rgb(10,255,10); fill-rule: nonzero; opacity: 1;" transform="matrix(-0.235556 0 0 0.235556 769.676486 108.239465) matrix(1 0 0 1 0 0)  translate(-230.745, -230.745)" d="M 461.49 230.74 C 273.07 254.12 254.12 273.07 230.74 461.49 C 207.37 273.07 188.42 254.12 0.00 230.74 C 188.42 207.37 207.37 188.42 230.74 0.00 C 254.12 188.42 273.07 207.37 461.49 230.74 Z" stroke-linecap="round"></path>
</g>
</g>
</g>

        </g>
      
  </svg>